
<svg mexport="1" xmlns="http://www.w3.org/2000/svg" xmlns:xlink="http://www.w3.org/1999/xlink" width="18.1094" height="18.1094" viewBox="0 0 18.1094 18.1094">
	<defs>
		<clipPath id="clipPath2112:466:0">
			<path d="M0 0L18.1094 0L18.1094 18.1094L0 18.1094L0 0Z" fill-rule="nonzero" transform="matrix(1 0 0 1 0 0)"/>
		</clipPath>
	</defs>
	<g clip-path="url(#clipPath2112:466:0)">
		<path d="M7.35694 0C3.30037 0 0 2.98838 0 6.66148C0 10.3346 3.30037 13.323 7.35694 13.323C11.4135 13.323 14.7139 10.3346 14.7139 6.66148C14.7139 2.98838 11.4135 0 7.35694 0ZM7.35694 10.2456C7.1616 10.2456 6.99487 10.183 6.85674 10.0579C6.71861 9.93288 6.64954 9.7819 6.64955 9.60503C6.64954 9.42815 6.71861 9.27717 6.85674 9.1521C6.99487 9.02703 7.1616 8.9645 7.35694 8.9645C7.55229 8.9645 7.71902 9.02703 7.85715 9.1521C7.99528 9.27717 8.06434 9.42815 8.06434 9.60503C8.06434 9.7819 7.99528 9.93288 7.85715 10.0579C7.71902 10.183 7.55229 10.2456 7.35694 10.2456ZM8.12518 3.80345L7.92216 7.71067C7.92215 7.85217 7.8669 7.97295 7.7564 8.073C7.6459 8.17306 7.51251 8.22309 7.35624 8.22309C7.19996 8.22309 7.06657 8.17306 6.95607 8.073C6.84557 7.97295 6.79032 7.85217 6.79032 7.71067L6.58729 3.80537L6.58729 3.80377C6.57791 3.60583 6.6489 3.43532 6.80027 3.29226C6.95163 3.14919 7.13672 3.07765 7.35553 3.07765C7.57434 3.07765 7.75943 3.14919 7.91079 3.29226C8.06216 3.43532 8.13315 3.60583 8.12376 3.80377L8.12518 3.80345Z" fill-rule="nonzero" transform="matrix(1 0 0 1 1.69776 2.39321)" fill="rgb(255, 255, 255)"/>
	</g>
</svg>
