
<svg mexport="1" xmlns="http://www.w3.org/2000/svg" xmlns:xlink="http://www.w3.org/1999/xlink" width="48" height="48" viewBox="0 0 48 48">
	<defs>
		<clipPath id="clipPath2112:393:0">
			<path d="M0 0L48 0L48 48L0 48L0 0Z" fill-rule="nonzero" transform="matrix(1 0 0 1 0 0)"/>
		</clipPath>
	</defs>
	<g clip-path="url(#clipPath2112:393:0)">
		<path d="M-1.5 4.5Q-1.5 2.01472 0.257359 0.257359Q2.01472 -1.5 4.5 -1.5L9 -1.5Q11.4853 -1.5 13.2426 0.257359Q15 2.01472 15 4.5L15 9Q15 11.4853 13.2426 13.2426Q11.4853 15 9 15L4.5 15Q2.01472 15 0.257359 13.2426Q-1.5 11.4853 -1.5 9L-1.5 4.5ZM18 4.5Q18 2.01472 19.7574 0.25736Q21.5147 -1.5 24 -1.5L28.5 -1.5Q30.9853 -1.5 32.7426 0.257361Q34.5 2.01472 34.5 4.5L34.5 9Q34.5 11.4853 32.7426 13.2426Q30.9853 15 28.5 15L24 15Q21.5147 15 19.7574 13.2426Q18 11.4853 18 9L18 4.5ZM1.5 4.5L1.5 9Q1.5 10.2426 2.37868 11.1213Q3.25736 12 4.5 12L9 12Q10.2426 12 11.1213 11.1213Q12 10.2426 12 9L12 4.5Q12 3.25736 11.1213 2.37868Q10.2426 1.5 9 1.5L4.5 1.5Q3.25736 1.5 2.37868 2.37868Q1.5 3.25736 1.5 4.5ZM21 4.5L21 9Q21 10.2426 21.8787 11.1213Q22.7574 12 24 12L28.5 12Q29.7426 12 30.6213 11.1213Q31.5 10.2426 31.5 9L31.5 4.5Q31.5 3.25736 30.6213 2.37868Q29.7426 1.5 28.5 1.5L24 1.5Q22.7574 1.5 21.8787 2.37868Q21 3.25736 21 4.5ZM-1.5 24Q-1.5 21.5147 0.25736 19.7574Q2.01472 18 4.5 18L9 18Q11.4853 18 13.2426 19.7574Q15 21.5147 15 24L15 28.5Q15 30.9853 13.2426 32.7426Q11.4853 34.5 9 34.5L4.5 34.5Q2.01472 34.5 0.257358 32.7426Q-1.5 30.9853 -1.5 28.5L-1.5 24ZM18 24Q18 21.5147 19.7574 19.7574Q21.5147 18 24 18L28.5 18Q30.9853 18 32.7426 19.7574Q34.5 21.5147 34.5 24L34.5 28.5Q34.5 30.9853 32.7426 32.7426Q30.9853 34.5 28.5 34.5L24 34.5Q21.5147 34.5 19.7574 32.7426Q18 30.9853 18 28.5L18 24ZM1.5 24L1.5 28.5Q1.5 29.7426 2.37868 30.6213Q3.25736 31.5 4.5 31.5L9 31.5Q10.2426 31.5 11.1213 30.6213Q12 29.7426 12 28.5L12 24Q12 22.7574 11.1213 21.8787Q10.2426 21 9 21L4.5 21Q3.25736 21 2.37868 21.8787Q1.5 22.7574 1.5 24ZM21 24L21 28.5Q21 29.7426 21.8787 30.6213Q22.7574 31.5 24 31.5L28.5 31.5Q29.7426 31.5 30.6213 30.6213Q31.5 29.7426 31.5 28.5L31.5 24Q31.5 22.7574 30.6213 21.8787Q29.7426 21 28.5 21L24 21Q22.7574 21 21.8787 21.8787Q21 22.7574 21 24Z" fill-rule="evenodd" transform="matrix(1 0 0 1 7.5 7.5)" fill="rgb(255, 255, 255)" fill-opacity="0.902"/>
	</g>
</svg>
