
<svg mexport="1" xmlns="http://www.w3.org/2000/svg" xmlns:xlink="http://www.w3.org/1999/xlink" width="16" height="16" viewBox="0 0 16 16">
	<defs>
		<clipPath id="clipPath0:0:0">
			<path d="M0 0L16 0L16 16L0 16L0 0Z" fill-rule="nonzero" transform="matrix(1 0 0 1 0 0)"/>
		</clipPath>
	</defs>
	<g clip-path="url(#clipPath0:0:0)">
		<path d="M6.5 0C2.91594 0 0 2.91594 0 6.5C0 10.0841 2.91594 13 6.5 13C10.0841 13 13 10.0841 13 6.5C13 2.91594 10.0841 0 6.5 0ZM8.85344 8.14656C8.95536 8.24339 9.00721 8.36209 9.00902 8.50265C9.01081 8.64322 8.96201 8.7632 8.86261 8.86261C8.7632 8.96201 8.64322 9.01081 8.50265 9.00901C8.36209 9.00721 8.24339 8.95536 8.14656 8.85344L6.5 7.20719L4.85344 8.85344C4.75515 8.94682 4.63822 8.99264 4.50265 8.9909C4.36709 8.98917 4.25137 8.94037 4.1555 8.8445C4.05963 8.74863 4.01083 8.63291 4.0091 8.49735C4.00736 8.36178 4.05318 8.24485 4.14656 8.14656L5.79281 6.5L4.14656 4.85344C4.05318 4.75515 4.00736 4.63822 4.0091 4.50265C4.01083 4.36709 4.05963 4.25137 4.1555 4.1555C4.25137 4.05963 4.36709 4.01083 4.50265 4.0091C4.63822 4.00736 4.75515 4.05318 4.85344 4.14656L6.5 5.79281L8.14656 4.14656C8.24485 4.05318 8.36178 4.00736 8.49735 4.0091C8.63291 4.01083 8.74863 4.05963 8.8445 4.1555C8.94037 4.25137 8.98917 4.36709 8.9909 4.50265C8.99264 4.63822 8.94682 4.75515 8.85344 4.85344L7.20719 6.5L8.85344 8.14656Z" fill-rule="nonzero" transform="matrix(1 0 0 1 1.5 1.5)" fill="rgb(107, 114, 128)"/>
	</g>
</svg>
