
<svg mexport="1" xmlns="http://www.w3.org/2000/svg" xmlns:xlink="http://www.w3.org/1999/xlink" width="28" height="28" viewBox="0 0 28 28">
	<defs>
		<clipPath id="clipPath1802:6828:0">
			<path d="M0 0L28 0L28 28L0 28L0 0Z" fill-rule="nonzero" transform="matrix(1 0 0 1 0 0)"/>
		</clipPath>
	</defs>
	<g clip-path="url(#clipPath1802:6828:0)">
		<path d="M12.6367 1.44118Q12.8941 1.31438 13.065 1.10147Q13.3573 0.737364 13.278 0.294433Q13.1968 -0.159082 12.7652 -0.420376Q12.3631 -0.66383 11.4319 -0.767127Q10.4594 -0.875 8.75 -0.875Q4.7632 -0.875 1.9441 1.9441Q-0.875 4.76319 -0.875 8.75Q-0.875 12.7368 1.9441 15.5559Q4.76319 18.375 8.75 18.375Q12.7368 18.375 15.5559 15.5559Q18.375 12.7368 18.375 8.75C18.375 8.26676 17.9832 7.875 17.5 7.875C17.0168 7.875 16.625 8.26676 16.625 8.75Q16.625 12.0119 14.3185 14.3185Q12.0119 16.625 8.75 16.625Q5.48807 16.625 3.18153 14.3185Q0.875 12.0119 0.875 8.75Q0.875 5.48807 3.18153 3.18153Q5.48807 0.875 8.75 0.875Q10.3627 0.875 11.239 0.972205Q11.3491 0.984421 11.4444 0.997794C11.4508 1.01293 11.4577 1.02798 11.4651 1.04292C11.6786 1.47642 12.2032 1.65473 12.6367 1.44118Z" fill-rule="evenodd" transform="matrix(1 0 0 1 5.25 7.32812)" fill="rgb(255, 255, 255)"/>
		<path d="M-0.618719 -0.618718C-0.960424 -0.277013 -0.960424 0.277013 -0.618718 0.618719L3.13756 4.375L-0.618718 8.13128C-0.960424 8.47299 -0.960424 9.02701 -0.618718 9.36872C-0.277013 9.71042 0.277013 9.71042 0.618718 9.36872L4.99372 4.99372Q5.05466 4.93278 5.10254 4.86112Q5.15041 4.78947 5.18339 4.70985Q5.21637 4.63023 5.23319 4.5457Q5.25 4.46118 5.25 4.375Q5.25 4.28882 5.23319 4.2043Q5.21637 4.11977 5.18339 4.04015Q5.15041 3.96053 5.10254 3.88888Q5.05466 3.81722 4.99372 3.75628L0.618718 -0.618718C0.277013 -0.960424 -0.277013 -0.960424 -0.618719 -0.618718Z" fill-rule="evenodd" transform="matrix(1 0 0 1 14 3.17188)" fill="rgb(255, 255, 255)"/>
	</g>
</svg>
