
<svg mexport="1" xmlns="http://www.w3.org/2000/svg" xmlns:xlink="http://www.w3.org/1999/xlink" width="64" height="64" viewBox="0 0 64 64">
	<defs>
		<clipPath id="clipPath0:0:0">
			<path d="M0 0L64 0L64 64L0 64L0 0Z" fill-rule="nonzero" transform="matrix(1 0 0 1 0 0)"/>
		</clipPath>
	</defs>
	<g clip-path="url(#clipPath0:0:0)">
		<path d="M36.3237 20C33.8013 20 22.9712 20.2475 16 30.7438L16 20C16 13.3825 10.6175 8 4 8C1.79125 8 0 9.79125 0 12C0 14.2087 1.79125 16 4 16C6.205 16 8 17.795 8 20L8 52C8 56.4125 11.5875 60 16 60L38 60C39.105 60 40 59.105 40 58L40 56C40 53.7912 38.2088 52 36 52L32 52L48 40L48 58C48 59.105 48.895 60 50 60L54 60C55.105 60 56 59.105 56 58L56 32.2325C54.7137 32.5662 53.3887 32.8 52 32.8C44.2738 32.8 37.81 27.2937 36.3237 20ZM56 8L48 8L40 0L40 16.8C40 23.4275 45.3725 28.8 52 28.8C58.6275 28.8 64 23.4275 64 16.8L64 0L56 8ZM47 18C45.895 18 45 17.105 45 16C45 14.895 45.895 14 47 14C48.105 14 49 14.895 49 16C49 17.105 48.105 18 47 18ZM57 18C55.895 18 55 17.105 55 16C55 14.895 55.895 14 57 14C58.105 14 59 14.895 59 16C59 17.105 58.105 18 57 18Z" fill-rule="nonzero" transform="matrix(1 0 0 1 0 4)" fill="rgb(210, 180, 140)"/>
	</g>
</svg>
