
<svg mexport="1" xmlns="http://www.w3.org/2000/svg" xmlns:xlink="http://www.w3.org/1999/xlink" width="16" height="16" viewBox="0 0 16 16">
	<defs>
		<clipPath id="clipPath0:0:0">
			<path d="M0 0L16 0L16 16L0 16L0 0Z" fill-rule="nonzero" transform="matrix(1 0 0 1 0 0)"/>
		</clipPath>
	</defs>
	<g clip-path="url(#clipPath0:0:0)">
		<path d="M14 6.66667Q14 8.15818 13.4234 9.52133Q12.8667 10.8375 11.8521 11.8521Q10.8375 12.8667 9.52133 13.4234Q8.15818 14 6.66667 14Q5.17515 14 3.812 13.4234Q2.49586 12.8667 1.48122 11.8521Q0.466577 10.8375 -0.0901038 9.52132Q-0.666667 8.15818 -0.666667 6.66667Q-0.666667 5.17515 -0.0901034 3.812Q0.466578 2.49585 1.48122 1.48122Q2.49586 0.466576 3.812 -0.090104Q5.17515 -0.666667 6.66667 -0.666667Q8.15818 -0.666667 9.52132 -0.0901033Q10.8375 0.466578 11.8521 1.48122Q12.8667 2.49586 13.4234 3.812Q14 5.17515 14 6.66667ZM12.6667 6.66667Q12.6667 5.44553 12.1954 4.3314Q11.7401 3.25478 10.9093 2.42403Q10.0785 1.59328 9.00192 1.1379Q7.88779 0.666667 6.66667 0.666667Q5.44553 0.666667 4.3314 1.1379Q3.25478 1.59328 2.42403 2.42403Q1.59328 3.25477 1.1379 4.3314Q0.666667 5.44553 0.666667 6.66667Q0.666667 7.88779 1.1379 9.00192Q1.59328 10.0785 2.42403 10.9093Q3.25478 11.7401 4.3314 12.1954Q5.44553 12.6667 6.66667 12.6667Q7.88779 12.6667 9.00192 12.1954Q10.0785 11.74 10.9093 10.9093Q11.74 10.0785 12.1954 9.00192Q12.6667 7.88779 12.6667 6.66667ZM6.66667 3.33333C6.29848 3.33333 6 3.63181 6 4L6 6.66667C6 7.03485 6.29848 7.33333 6.66667 7.33333C7.03485 7.33333 7.33333 7.03485 7.33333 6.66667L7.33333 4C7.33333 3.63181 7.03485 3.33333 6.66667 3.33333ZM6 9.33333C6 9.70152 6.29848 10 6.66667 10L6.66667 8.66667C6.29848 8.66667 6 8.96515 6 9.33333ZM6.67333 8.66667C7.04152 8.66667 7.34 8.96515 7.34 9.33333C7.34 9.70152 7.04152 10 6.67333 10L6.67333 8.66667Z" fill-rule="evenodd" transform="matrix(1 0 0 1 1.33333 1.33333)" fill="rgb(239, 68, 68)"/>
	</g>
</svg>
