
<svg mexport="1" xmlns="http://www.w3.org/2000/svg" xmlns:xlink="http://www.w3.org/1999/xlink" width="20" height="20" viewBox="0 0 20 20">
	<defs>
		<clipPath id="clipPath0:0:0">
			<path d="M0 0L20 0L20 20L0 20L0 0Z" fill-rule="nonzero" transform="matrix(1 0 0 1 0 0)"/>
		</clipPath>
	</defs>
	<g clip-path="url(#clipPath0:0:0)">
		<path d="M15.9857 2.72621C14.1929 0.944076 12.0327 0.0356777 9.50502 0.00101969C6.97736 -0.0336383 4.79302 0.815189 2.952 2.5475C1.11098 4.27981 0.130941 6.40852 0.0118851 8.93361C-0.107171 11.4587 0.668232 13.6702 2.33809 15.568L2.34512 15.5758C2.35801 15.5895 2.37012 15.6036 2.38419 15.6168C2.41309 15.6497 2.4459 15.6868 2.48458 15.7254C2.80512 16.0661 3.19928 16.2349 3.66706 16.2316C4.13484 16.2283 4.52662 16.0542 4.84239 15.709C6.05811 14.3878 7.56371 13.7271 9.35919 13.7271C11.1547 13.7271 12.6603 14.3878 13.876 15.709C14.1943 16.0562 14.589 16.23 15.06 16.2305C15.5311 16.231 15.9261 16.0579 16.2451 15.7114L16.3705 15.5747L16.3775 15.5668C18.0206 13.7115 18.8044 11.5454 18.729 9.06828C18.6537 6.5912 17.7397 4.47666 15.9869 2.72465L15.9857 2.72621ZM8.73184 3.10707C8.73184 2.93448 8.79286 2.78717 8.9149 2.66513C9.03694 2.54309 9.18425 2.48207 9.35684 2.48207C9.52943 2.48207 9.67674 2.54309 9.79878 2.66513C9.92082 2.78717 9.98184 2.93448 9.98184 3.10707L9.98184 4.35707C9.98184 4.52966 9.92082 4.67698 9.79878 4.79901C9.67674 4.92105 9.52943 4.98207 9.35684 4.98207C9.18425 4.98207 9.03694 4.92105 8.9149 4.79901C8.79286 4.67698 8.73184 4.52966 8.73184 4.35707L8.73184 3.10707ZM4.35684 9.98207L3.10684 9.98207C2.93425 9.98207 2.78694 9.92105 2.6649 9.79901C2.54286 9.67698 2.48184 9.52966 2.48184 9.35707C2.48184 9.18448 2.54286 9.03717 2.6649 8.91513C2.78694 8.79309 2.93425 8.73207 3.10684 8.73207L4.35684 8.73207C4.52943 8.73207 4.67674 8.79309 4.79878 8.91513C4.92082 9.03717 4.98184 9.18448 4.98184 9.35707C4.98184 9.52966 4.92082 9.67698 4.79878 9.79901C4.67674 9.92105 4.52943 9.98207 4.35684 9.98207ZM6.26309 6.26332C6.14107 6.38527 5.9938 6.44624 5.8213 6.44624C5.64879 6.44624 5.50152 6.38527 5.3795 6.26332L4.49551 5.37973C4.37346 5.25768 4.31244 5.11035 4.31244 4.93774C4.31244 4.76513 4.37346 4.6178 4.49551 4.49575C4.61757 4.37369 4.7649 4.31267 4.93751 4.31267C5.11012 4.31267 5.25745 4.37369 5.3795 4.49575L6.26309 5.37973C6.38503 5.50175 6.446 5.64902 6.446 5.82153C6.446 5.99403 6.38503 6.1413 6.26309 6.26332ZM12.0951 7.16567L10.2397 10.1149C10.2017 10.1675 10.1598 10.2167 10.1139 10.2626C10.0681 10.3085 10.0188 10.3504 9.96622 10.3883C9.70193 10.5727 9.41101 10.6375 9.09346 10.5828C8.77591 10.528 8.52348 10.3695 8.33618 10.1073C8.14889 9.8451 8.08084 9.55493 8.13205 9.23678C8.18325 8.91864 8.33891 8.66446 8.59903 8.47426L11.5482 6.61879C11.6169 6.57094 11.6931 6.54701 11.7768 6.54701C11.8605 6.54701 11.9366 6.57094 12.0053 6.61879C12.0929 6.68207 12.1455 6.76703 12.163 6.8737C12.1805 6.98036 12.1579 7.07768 12.0951 7.16567ZM13.3342 6.26332C13.2113 6.38005 13.0652 6.43733 12.8957 6.43516C12.7262 6.43299 12.5816 6.37198 12.4618 6.25215C12.3419 6.13232 12.2809 5.98767 12.2788 5.81821C12.2766 5.64876 12.3339 5.50259 12.4506 5.37973L13.3342 4.49575C13.4563 4.37385 13.6036 4.31294 13.7761 4.31301C13.9486 4.31307 14.0958 4.3741 14.2178 4.49609C14.3398 4.61807 14.4008 4.76532 14.4009 4.93784C14.401 5.11035 14.3401 5.25765 14.2182 5.37973L13.3342 6.26332ZM15.6068 9.98207L14.3568 9.98207C14.1843 9.98207 14.0369 9.92105 13.9149 9.79901C13.7929 9.67698 13.7318 9.52966 13.7318 9.35707C13.7318 9.18448 13.7929 9.03717 13.9149 8.91513C14.0369 8.79309 14.1843 8.73207 14.3568 8.73207L15.6068 8.73207C15.7794 8.73207 15.9267 8.79309 16.0488 8.91513C16.1708 9.03717 16.2318 9.18448 16.2318 9.35707C16.2318 9.52966 16.1708 9.67698 16.0488 9.79901C15.9267 9.92105 15.7794 9.98207 15.6068 9.98207Z" fill-rule="nonzero" transform="matrix(1 0 0 1 0.643157 1.89293)" fill="rgb(59, 130, 246)"/>
	</g>
</svg>
