
<svg mexport="1" xmlns="http://www.w3.org/2000/svg" xmlns:xlink="http://www.w3.org/1999/xlink" width="24" height="24" viewBox="0 0 24 24">
	<defs>
		<clipPath id="clipPath1802:7377:0">
			<path d="M0 0L24 0L24 24L0 24L0 0Z" fill-rule="nonzero" transform="matrix(1 0 0 1 0 0)"/>
		</clipPath>
	</defs>
	<g clip-path="url(#clipPath1802:7377:0)">
		<path d="M3.5 7C5.433 7 7 5.433 7 3.5C7 1.567 5.433 0 3.5 0C1.567 0 0 1.567 0 3.5C0 5.433 1.567 7 3.5 7Z" fill-rule="nonzero" transform="matrix(1 0 0 1 8.5 6.5)" fill="rgb(255, 255, 255)"/>
		<path d="M7.27298 19.3134Q7.87873 18.672 9.29913 17.3593Q10.6918 16.0723 11.3675 15.3789Q12.4827 14.2346 13.2083 13.2101Q14.0674 11.9971 14.5076 10.7869Q15 9.43292 15 8Q15 6.57519 14.4503 5.27559Q13.9191 4.01957 12.9498 3.05025Q11.9804 2.08094 10.7244 1.54968Q9.42482 0.999999 8 0.999999Q6.57519 1 5.27559 1.54968Q4.01957 2.08094 3.05025 3.05025Q2.08094 4.01957 1.54968 5.27559Q0.999999 6.57519 0.999999 8Q1 9.43293 1.49244 10.7869Q1.93259 11.9971 2.79169 13.2101Q3.51728 14.2346 4.63248 15.3789Q5.30826 16.0724 6.7009 17.3594Q8.12124 18.672 8.72701 19.3134L8 20L7.27298 19.3134ZM8.72702 20.6866Q8.7074 20.7074 8.68662 20.727Q8.61502 20.7946 8.5316 20.847Q8.44817 20.8994 8.35614 20.9344Q8.26411 20.9695 8.167 20.986Q8.06989 21.0024 7.97144 20.9996Q7.87299 20.9968 7.77698 20.9748Q7.68097 20.9528 7.59109 20.9126Q7.5012 20.8723 7.42091 20.8153Q7.34061 20.7582 7.27299 20.6866Q6.71392 20.0947 5.34349 18.8282Q3.91247 17.5057 3.20017 16.7748Q1.97566 15.5184 1.15957 14.3661Q-1 11.3168 -1 8Q-1 6.16962 -0.292326 4.49649Q0.390887 2.88119 1.63604 1.63604Q2.88119 0.390888 4.49649 -0.292325Q6.16962 -1 8 -1Q9.83039 -1 11.5035 -0.292326Q13.1188 0.390888 14.364 1.63604Q15.6091 2.88119 16.2923 4.49649Q17 6.16962 17 8Q17 11.3168 14.8404 14.366Q14.0243 15.5183 12.7999 16.7748Q12.0876 17.5056 10.6565 18.8281Q9.28607 20.0947 8.72702 20.6866Z" fill-rule="nonzero" transform="matrix(1 0 0 1 4 2)" fill="rgb(255, 255, 255)"/>
	</g>
</svg>
