
<svg mexport="1" xmlns="http://www.w3.org/2000/svg" xmlns:xlink="http://www.w3.org/1999/xlink" width="28" height="28" viewBox="0 0 28 28">
	<defs>
		<clipPath id="clipPath1802:6821:0">
			<path d="M0 0L28 0L28 28L0 28L0 0Z" fill-rule="nonzero" transform="matrix(1 0 0 1 0 0)"/>
		</clipPath>
	</defs>
	<g clip-path="url(#clipPath1802:6821:0)">
		<path d="M5.77063 2.54078C6.01373 2.30022 6.12925 2.00904 6.11719 1.66725C6.10513 1.32546 5.96938 1.04314 5.70993 0.820312C5.40119 0.556821 5.05652 0.354558 4.67592 0.213525C4.29531 0.0724918 3.90207 0.00131679 3.49618 0L3.31735 0.00492167L3.2911 0.00492167C1.43993 0.117578 -0.0038206 1.72539 7.51019e-06 3.66406C7.51019e-06 4.70312 0.437508 5.25328 0.783132 5.69352C0.881184 5.81795 1.00018 5.91729 1.14012 5.99154C1.28006 6.0658 1.42903 6.10864 1.58704 6.12008C1.60126 6.12008 1.62532 6.12281 1.69641 6.12281C1.83845 6.1226 1.97475 6.09453 2.10531 6.03861C2.23587 5.98268 2.35022 5.90338 2.44837 5.8007L5.77063 2.54078ZM19.4534 0.00601566L19.2746 0.000546992L19.2462 0.000546992C18.8399 0.00160454 18.4463 0.0726541 18.0653 0.213696C17.6843 0.354737 17.3393 0.557125 17.0302 0.820859C16.7712 1.04366 16.6356 1.32579 16.6236 1.66726C16.6115 2.00873 16.7268 2.29972 16.9695 2.54023L20.2929 5.80234C20.3913 5.90539 20.5059 5.98494 20.6369 6.04097C20.7679 6.09701 20.9046 6.12502 21.047 6.125C21.117 6.125 21.1411 6.125 21.1564 6.12227C21.3143 6.11075 21.4632 6.06787 21.603 5.99362C21.7429 5.91937 21.8618 5.82007 21.9598 5.6957C22.3076 5.25547 22.7407 4.70695 22.7429 3.66625C22.7462 1.72539 21.3024 0.117578 19.4534 0.00601566Z" fill-rule="nonzero" transform="matrix(1 0 0 1 2.62882 3.5)" fill="rgb(255, 255, 255)"/>
		<path d="M9.63378 0C4.32909 0 0.00877774 4.31758 0.00877774 9.625C0.00783841 10.7501 0.19912 11.8416 0.582624 12.8993C0.966127 13.9571 1.51878 14.9175 2.24057 15.7806L0.265262 17.7565C0.0901692 17.9266 0.00175711 18.1337 2.58684e-05 18.3778C-0.00170565 18.622 0.0837598 18.8303 0.256422 19.0029C0.429085 19.1755 0.637476 19.2609 0.881596 19.259C1.12572 19.2572 1.3328 19.1687 1.50284 18.9935L3.47815 17.0182C5.26029 18.5061 7.31217 19.2501 9.63378 19.2501C11.9554 19.2501 14.0073 18.5061 15.7894 17.0182L17.7653 18.9935C17.9353 19.1687 18.1424 19.2572 18.3865 19.259C18.6306 19.2609 18.839 19.1755 19.0117 19.0029C19.1843 18.8303 19.2698 18.622 19.2681 18.3778C19.2663 18.1337 19.1779 17.9266 19.0028 17.7565L17.027 15.7806C17.7489 14.9176 18.3016 13.9572 18.6851 12.8994C19.0686 11.8416 19.2599 10.7502 19.2588 9.625C19.2588 4.32031 14.9412 0 9.63378 0ZM10.5088 9.625C10.5088 9.86662 10.4233 10.0729 10.2525 10.2437C10.0816 10.4146 9.8754 10.5 9.63378 10.5L5.25878 10.5C5.01715 10.5 4.81091 10.4146 4.64006 10.2437C4.4692 10.0729 4.38378 9.86662 4.38378 9.625C4.38378 9.38337 4.4692 9.17713 4.64006 9.00628C4.81091 8.83543 5.01715 8.75 5.25878 8.75L8.75878 8.75L8.75878 3.5C8.75878 3.25838 8.8442 3.05214 9.01506 2.88128C9.18591 2.71043 9.39215 2.625 9.63378 2.625C9.8754 2.625 10.0816 2.71043 10.2525 2.88128C10.4233 3.05214 10.5088 3.25838 10.5088 3.5L10.5088 9.625Z" fill-rule="nonzero" transform="matrix(1 0 0 1 4.37005 5.25)" fill="rgb(255, 255, 255)"/>
	</g>
</svg>
