
<svg mexport="1" xmlns="http://www.w3.org/2000/svg" xmlns:xlink="http://www.w3.org/1999/xlink" width="28" height="28" viewBox="0 0 28 28">
	<defs>
		<clipPath id="clipPath1802:6835:0">
			<path d="M0 0L28 0L28 28L0 28L0 0Z" fill-rule="nonzero" transform="matrix(1 0 0 1 0 0)"/>
		</clipPath>
	</defs>
	<g clip-path="url(#clipPath1802:6835:0)">
		<path d="M12.2497 8.20312C11.0415 8.20312 10.0103 8.63026 9.15607 9.48453C8.3018 10.3388 7.87466 11.37 7.87466 12.5781C7.87466 13.7862 8.3018 14.8174 9.15607 15.6717C10.0103 16.526 11.0415 16.9531 12.2497 16.9531C13.4578 16.9531 14.489 16.526 15.3433 15.6717C16.1975 14.8174 16.6247 13.7862 16.6247 12.5781C16.6211 11.3715 16.1926 10.3416 15.3394 9.48836C14.4862 8.63514 13.4563 8.20673 12.2497 8.20312ZM21.6953 12.5781C21.6941 12.7825 21.6861 12.9866 21.6711 13.1905C21.6562 13.3944 21.6343 13.5975 21.6056 13.7998L24.2683 15.8845C24.3881 15.9834 24.4616 16.1093 24.4888 16.2622C24.516 16.4152 24.4905 16.5587 24.4122 16.6928L21.8933 21.0416C21.8142 21.1744 21.7017 21.2663 21.5557 21.3172C21.4097 21.3681 21.2645 21.3661 21.12 21.3112L17.9891 20.0534C17.6631 20.3044 17.3225 20.5336 16.9672 20.7411C16.612 20.9486 16.2449 21.1326 15.8661 21.2931L15.398 24.617C15.371 24.7706 15.2983 24.898 15.1799 24.9994C15.0615 25.1008 14.9244 25.1531 14.7686 25.1562L9.73075 25.1562C9.57796 25.1533 9.44271 25.1031 9.325 25.0056C9.20729 24.9081 9.13272 24.7846 9.1013 24.6351L8.63317 21.3112C8.25333 21.1525 7.88571 20.9693 7.53031 20.7615C7.17491 20.5538 6.83488 20.3234 6.51021 20.0703L3.37935 21.3281C3.2349 21.3831 3.08969 21.3852 2.94371 21.3344C2.79773 21.2836 2.68519 21.1918 2.60607 21.0591L0.0871605 16.7109C0.00886069 16.5767 -0.0166842 16.4332 0.0105257 16.2803C0.0377358 16.1274 0.111223 16.0015 0.230989 15.9026L2.89372 13.8179C2.86533 13.6125 2.84365 13.4063 2.82868 13.1995C2.81372 12.9926 2.8055 12.7855 2.80404 12.5781C2.80517 12.3737 2.81322 12.1696 2.82819 11.9657C2.84315 11.7619 2.865 11.5588 2.89372 11.3564L0.230989 9.27172C0.111224 9.17283 0.0377365 9.04693 0.0105264 8.89401C-0.0166837 8.7411 0.00886104 8.59757 0.0871605 8.46344L2.60607 4.11469C2.6851 3.98181 2.79761 3.88993 2.9436 3.83903C3.08958 3.78813 3.23483 3.79015 3.37935 3.84508L6.51021 5.10289C6.83618 4.85188 7.1768 4.62264 7.53207 4.41517C7.88735 4.20769 8.25438 4.02368 8.63318 3.86313L9.1013 0.53922C9.12832 0.385696 9.20102 0.258227 9.3194 0.156814C9.43779 0.0554002 9.5749 0.00312904 9.73075 0L14.7686 0C14.9214 0.00297369 15.0566 0.0531906 15.1743 0.150651C15.292 0.248111 15.3666 0.371618 15.398 0.521172L15.8661 3.84508C16.2465 4.00366 16.6146 4.18682 16.9704 4.39455C17.3263 4.60229 17.6668 4.83275 17.9918 5.08594L21.12 3.82812C21.2644 3.77314 21.4096 3.77105 21.5556 3.82184C21.7016 3.87263 21.8141 3.96441 21.8933 4.09719L24.4122 8.44594C24.4905 8.58007 24.516 8.7236 24.4888 8.87651C24.4616 9.02943 24.3881 9.15533 24.2683 9.25422L21.6056 11.3389C21.634 11.5443 21.6557 11.7503 21.6706 11.9571C21.6856 12.1638 21.6938 12.3708 21.6953 12.5781Z" fill-rule="nonzero" transform="matrix(1 0 0 1 1.75034 1.42188)" fill="rgb(255, 255, 255)"/>
	</g>
</svg>
