
<svg mexport="1" xmlns="http://www.w3.org/2000/svg" xmlns:xlink="http://www.w3.org/1999/xlink" width="64" height="56.8889" viewBox="0 0 64 56.8889">
	<defs>
		<clipPath id="clipPath0:0:0">
			<path d="M0 0L64 0L64 56.8889L0 56.8889L0 0Z" fill-rule="nonzero" transform="matrix(1 0 0 1 0 -0.00012207)"/>
		</clipPath>
	</defs>
	<g clip-path="url(#clipPath0:0:0)">
		<path d="M29.5622 18.9658L46.2222 24.2547L46.2222 45.83C46.2222 46.2664 46.0487 46.6388 45.7015 46.9474C45.3544 47.2559 44.9354 47.4102 44.4444 47.4102L37.3333 47.4102C36.8424 47.4102 36.4234 47.2559 36.0763 46.9474C35.7291 46.6388 35.5556 46.2664 35.5556 45.83L35.5556 34.7683L17.7778 34.7683L17.7778 45.83C17.7778 46.2664 17.6042 46.6388 17.2571 46.9474C16.9099 47.2559 16.4909 47.4102 16 47.4102L8.88889 47.4102C8.39797 47.4102 7.97894 47.2559 7.63181 46.9474C7.28468 46.6388 7.11111 46.2664 7.11111 45.83L7.11111 24.7031C2.98222 23.3944 0 19.9199 0 15.8053C-1.41285e-07 14.9325 0.347132 14.1876 1.0414 13.5705C1.73566 12.9534 2.57372 12.6448 3.55556 12.6448C4.5374 12.6448 5.37545 12.9534 6.06971 13.5705C6.76398 14.1876 7.11111 14.9325 7.11111 15.8053C7.11295 16.6774 7.46073 17.4217 8.15446 18.0384C8.84818 18.655 9.68559 18.9642 10.6667 18.9658L29.5622 18.9658ZM56.8889 7.90406L56.8889 11.0646C56.8889 12.81 56.1946 14.2999 54.8061 15.5342C53.4176 16.7684 51.7415 17.3855 49.7778 17.3855L46.2222 17.3855L46.2222 20.8996L32 16.385L32 1.58307C32 0.175662 33.9133 -0.529523 35.0344 0.466032L38.0656 3.16332L44.0244 3.16332C45.2367 3.16332 46.6633 3.94554 47.2044 4.91048L48 6.32381L55.1111 6.32381C55.602 6.32381 56.0211 6.47809 56.3682 6.78665C56.7153 7.09522 56.8889 7.46768 56.8889 7.90406ZM44.4444 7.90406C44.4444 7.46768 44.2709 7.09522 43.9237 6.78665C43.5766 6.47809 43.1576 6.32381 42.6667 6.32381C42.1757 6.32381 41.7567 6.47809 41.4096 6.78665C41.0625 7.09522 40.8889 7.46768 40.8889 7.90406C40.8889 8.34043 41.0625 8.7129 41.4096 9.02146C41.7567 9.33002 42.1757 9.4843 42.6667 9.4843C43.1576 9.4843 43.5766 9.33002 43.9237 9.02146C44.2709 8.7129 44.4444 8.34043 44.4444 7.90406Z" fill-rule="nonzero" transform="matrix(1 0 0 1 3.55554 6.31802)" fill="rgb(126, 87, 194)"/>
	</g>
</svg>
