
<svg mexport="1" xmlns="http://www.w3.org/2000/svg" xmlns:xlink="http://www.w3.org/1999/xlink" width="24" height="24" viewBox="0 0 24 24">
	<defs>
		<clipPath id="clipPath1802:6129:0">
			<path d="M0 0L24 0L24 24L0 24L0 0Z" fill-rule="nonzero" transform="matrix(1 0 0 1 0 0)"/>
		</clipPath>
	</defs>
	<g clip-path="url(#clipPath1802:6129:0)">
		<path d="M5.38237 22.5027C5.11486 22.5029 4.89502 22.4006 4.72287 22.1959C4.55073 21.9911 4.48775 21.7569 4.53394 21.4934L4.53394 21.4883L5.85159 14.2527L0.750185 14.2527C0.605688 14.2526 0.472333 14.2141 0.35012 14.137C0.227907 14.0599 0.135676 13.9562 0.0734274 13.8258C0.011179 13.6954 -0.0114908 13.5584 0.00541806 13.4149C0.0223269 13.2714 0.0762075 13.1435 0.16706 13.0311L10.4407 0.330789C10.5608 0.178251 10.7149 0.077602 10.9029 0.0288422C11.0908 -0.0199177 11.2744 -0.00685342 11.4535 0.068035C11.6327 0.142923 11.771 0.264377 11.8683 0.432396C11.9657 0.600415 12.0023 0.780765 11.9782 0.973445C11.9782 0.987508 11.9744 1.0011 11.9721 1.01516L10.6497 8.25266L15.7502 8.25266C15.8947 8.25268 16.028 8.29123 16.1502 8.36833C16.2725 8.44542 16.3647 8.54917 16.4269 8.67957C16.4892 8.80997 16.5119 8.94692 16.495 9.09043C16.478 9.23393 16.4242 9.36186 16.3333 9.47423L6.05831 22.1745C5.97654 22.2779 5.87638 22.3583 5.75784 22.4158C5.6393 22.4734 5.51414 22.5023 5.38237 22.5027Z" fill-rule="nonzero" transform="matrix(1 0 0 1 3.74981 0.747336)" fill="rgb(55, 65, 81)"/>
	</g>
</svg>
